<svg width="56" height="56" viewBox="0 0 56 56" fill="none" xmlns="http://www.w3.org/2000/svg">
<path d="M27.9336 52.4068C41.4253 52.4068 52.3624 41.4696 52.3624 27.9778C52.3624 14.4862 41.4253 3.54895 27.9336 3.54895C14.4418 3.54895 3.50461 14.4862 3.50461 27.9778C3.50461 41.4696 14.4418 52.4068 27.9336 52.4068Z" fill="#FF4081"/>
<path fill-rule="evenodd" clip-rule="evenodd" d="M27.9336 55.8965C12.5782 55.8965 0.0147552 43.3331 0.0147552 27.9778C0.0147552 12.6225 12.5782 0.059082 27.9336 0.059082C43.2889 0.059082 55.8523 12.6225 55.8523 27.9778C55.8523 43.3331 43.2889 55.8965 27.9336 55.8965ZM51.49 31.8168C50.6176 31.4678 44.1613 29.5484 36.6583 30.7698C39.799 39.3198 41.0203 46.2995 41.3693 47.6955C46.6043 44.0311 50.443 38.4474 51.49 31.8168ZM37.1816 49.9638C36.8326 47.8701 35.4366 40.5414 32.1213 31.8168H31.9469C18.5109 36.5281 13.6252 45.7761 13.2762 46.6485C17.2895 49.7894 22.3498 51.7088 27.9336 51.7088C31.2489 51.8834 34.3897 51.1854 37.1816 49.9638ZM10.1353 43.8568C10.6588 42.9841 17.2895 32.1658 29.504 28.1524C29.8529 27.9778 30.2019 27.9778 30.3763 27.8034C29.853 26.4074 29.155 25.0115 28.457 23.7901C16.5915 27.2798 4.90053 27.2798 4.02809 27.1054C4.02809 27.2798 4.02809 27.6288 4.02809 27.8034C4.02809 34.0851 6.47096 39.6688 10.1353 43.8568ZM4.55156 23.0921C5.59852 23.0921 15.3701 23.0921 26.5376 20.1257C22.5243 13.146 18.3364 7.21326 17.6385 6.34082C11.1823 9.48166 6.12199 15.7634 4.55156 23.0921ZM22.3498 4.77038C23.0477 5.64285 27.41 11.5756 31.2489 18.7298C39.799 15.5889 43.2889 10.7031 43.8123 10.1796C39.6246 6.51529 34.0407 4.24689 27.9336 4.24689C26.0142 4.24689 24.0946 4.42139 22.3498 4.77038ZM46.4297 12.9715C45.9063 13.6695 41.893 18.7298 33.1683 22.3941C33.6917 23.4411 34.2153 24.6625 34.7387 25.8841C34.9133 26.2328 35.0877 26.7564 35.2623 27.1054C43.1143 26.0584 51.141 27.6288 51.839 27.8034C51.6646 22.2196 49.745 16.9848 46.4297 12.9715Z" fill="#E51067"/>
</svg>
