<svg width="566" height="611" viewBox="0 0 566 611" fill="none" xmlns="http://www.w3.org/2000/svg">
<path d="M274.016 501.571C274.016 501.571 278.217 524.682 273.015 545.219L346.484 582.737C346.484 582.737 350.005 568.59 340.505 553.853C331.004 539.117 326.328 527.569 327.751 511.799L274.016 501.571Z" fill="#FF2633"/>
<path d="M314.736 536.338L328.756 538.352" stroke="white" stroke-width="1.34399" stroke-miterlimit="10" stroke-linecap="round"/>
<path d="M372.677 471.24C372.677 471.24 391.566 497.346 406.881 499.392L457.705 447.965C457.705 447.965 449.987 436.369 428.192 445.9C428.192 445.9 422.833 448.927 414.301 446.503C410.255 445.359 405.944 442.672 401.485 437.498L372.677 471.24Z" fill="#FF2633"/>
<path d="M415.015 461.518L418.644 448.872" stroke="white" stroke-width="1.34399" stroke-miterlimit="10" stroke-linecap="round"/>
<path d="M419.623 343.953L361.603 326.45C357.617 325.248 353.329 327.251 352.024 330.923L333.029 384.386C331.724 388.057 333.898 392.009 337.882 393.212L395.903 410.715C399.888 411.917 404.177 409.914 405.481 406.242L424.476 352.779C425.781 349.108 423.608 345.156 419.623 343.953Z" stroke="#DADEEB" stroke-width="1.34399" stroke-miterlimit="10"/>
<path d="M350.076 278.881L301.438 290.844C301.048 290.94 300.64 290.953 300.243 290.885C299.847 290.818 299.471 290.669 299.143 290.452C298.816 290.234 298.545 289.954 298.35 289.628C298.155 289.303 298.039 288.941 298.013 288.57L302.192 257.148C302.338 256.051 302.842 255.02 303.638 254.193C304.435 253.367 305.485 252.783 306.65 252.519L356.169 241.277C356.547 241.179 356.946 241.172 357.328 241.255C357.71 241.338 358.063 241.51 358.352 241.754C358.643 241.998 358.861 242.306 358.987 242.649C359.112 242.991 359.139 243.359 359.068 243.714L352.531 276.441C352.416 277.021 352.123 277.559 351.688 277.991C351.254 278.423 350.694 278.732 350.076 278.881Z" fill="#BEDDFA"/>
<path d="M350.583 201.386C361.95 200.244 370.16 190.827 368.921 180.353C367.682 169.879 357.462 162.314 346.095 163.456C334.728 164.597 326.518 174.014 327.757 184.489C328.996 194.962 339.216 202.527 350.583 201.386Z" fill="#FF2633"/>
<path d="M354.957 185.011L344.006 190.345C343.782 190.457 343.53 190.51 343.275 190.499C343.021 190.487 342.774 190.412 342.563 190.281C342.353 190.149 342.185 189.967 342.079 189.753C341.973 189.539 341.933 189.303 341.963 189.07L343.425 176.404C343.445 176.169 343.535 175.943 343.686 175.753C343.836 175.562 344.04 175.413 344.277 175.323C344.513 175.232 344.772 175.204 345.024 175.241C345.278 175.278 345.515 175.378 345.709 175.531L355.2 182.87C355.382 183.004 355.524 183.177 355.613 183.375C355.703 183.573 355.738 183.788 355.713 184.001C355.69 184.215 355.608 184.419 355.476 184.595C355.344 184.771 355.165 184.914 354.957 185.011Z" fill="white"/>
<path d="M108.821 174.42C94.4838 192.005 82.8078 211.304 74.1139 231.788C70.1234 241.003 66.9093 250.488 64.5001 260.158C62.1919 269.362 61.1615 278.799 61.4337 288.242C61.784 297.238 63.6157 306.346 67.5917 314.611C71.2604 322.249 76.604 329.106 83.2866 334.751C89.8083 340.352 97.7361 344.374 106.359 346.457C110.584 347.431 114.941 347.823 119.291 347.622C121.124 347.539 122.951 347.419 124.792 347.373C129.079 347.325 133.36 347.077 137.621 346.631C142.941 346.075 148.147 344.818 153.08 342.899C158.642 340.69 163.609 337.38 167.63 333.206C172.723 327.86 176.049 321.258 178.085 314.443C180.176 307.482 181.606 299.12 175.984 293.206C170.705 287.672 161.846 286.143 154.319 287.78C144.121 290.007 136.525 297.071 131.241 305.092C126.688 311.808 123.64 319.295 122.279 327.113C121.112 334.128 121.127 342.006 124.785 348.45C126.839 352.09 130.307 354.898 133.65 357.529C138.902 361.638 144.643 365.186 150.761 368.106C159.452 372.266 168.847 375.037 178.545 376.298C184.109 376.99 189.731 377.192 195.336 376.899C196.341 376.853 195.103 375.475 195.103 375.475C184.34 376.024 173.563 374.673 163.35 371.498C151.032 367.602 139.798 361.252 130.446 352.9C128.734 351.415 127.286 349.693 126.156 347.793C124.531 344.724 123.571 341.393 123.325 337.986C122.648 330.747 124.126 323.248 126.839 316.458C128.409 312.603 130.399 308.903 132.781 305.418C135.514 301.197 139.021 297.445 143.145 294.328C150.228 289.181 160.047 286.72 168.625 290.092C171.494 291.162 173.979 292.956 175.795 295.268C177.865 298.028 178.549 301.453 178.443 304.769C178.275 308.929 177.06 313.108 175.625 317.035C174.435 320.389 172.849 323.611 170.893 326.644C167.673 331.623 163.233 335.837 157.927 338.948C153.343 341.531 148.302 343.354 143.035 344.337C138.474 345.185 133.841 345.674 129.19 345.796C127.332 345.863 125.478 345.89 123.629 345.94C121.463 345.998 119.296 346.214 117.131 346.218C108.537 346.132 100.139 343.845 92.8755 339.611C85.4191 335.29 79.0573 329.543 74.2207 322.76C69.1742 315.641 65.782 307.637 64.2576 299.25C62.6205 290.245 62.4726 281.064 63.819 272.018C65.1675 262.859 67.4405 253.837 70.6085 245.068C74.1378 235.093 78.3801 225.344 83.3074 215.886C88.3304 206.229 94.0467 196.891 100.418 187.936C103.487 183.624 106.704 179.408 110.069 175.287C110.174 175.133 110.211 174.95 110.175 174.773C110.14 174.595 110.032 174.436 109.876 174.327C109.719 174.218 109.524 174.167 109.329 174.184C109.134 174.203 108.952 174.286 108.821 174.42Z" fill="#DADEEB"/>
<path d="M267.142 158.289L281.669 151.721" stroke="#DADEEB" stroke-width="1.34399" stroke-miterlimit="10" stroke-linecap="round"/>
<path d="M266.41 164.564L282.595 164.688" stroke="#DADEEB" stroke-width="1.34399" stroke-miterlimit="10" stroke-linecap="round"/>
<path d="M405.607 434.863C371.387 389.408 330.801 360.611 310.447 346.187C307.314 343.966 303.465 341.233 302.13 340.157C292.358 333.04 289.678 318.12 289.678 318.12L247.416 334.988C247.407 334.946 247.403 334.903 247.401 334.86C247.407 334.912 247.411 334.95 247.381 334.992L247.048 335.121L186.931 327.008C186.113 331.889 180.322 375.529 215.102 404.884C222.54 411.169 235.665 427.799 248.209 450.786C260.683 473.612 267.605 488.21 269.498 504.205L338.741 517.521C335.109 486.825 311.948 442.311 302.782 425.508C296.939 414.736 290.447 404.273 283.338 394.169C305.691 410.439 340.397 438.585 366.069 482.712C366.094 482.683 408.598 438.842 405.607 434.863Z" fill="#0D0F44"/>
<path d="M271.807 491.216L323.125 501.617" stroke="#E6E6E6" stroke-width="1.34399" stroke-miterlimit="10" stroke-linecap="round"/>
<path d="M398.536 425.802C398.536 425.802 383.288 449.696 370.361 461.527" stroke="#E6E6E6" stroke-width="1.34399" stroke-miterlimit="10" stroke-linecap="round"/>
<path d="M281.311 391.278C281.311 391.278 270.412 376.399 263.419 369.877L268.148 360.917" stroke="#E6E6E6" stroke-width="1.34399" stroke-miterlimit="10" stroke-linecap="round"/>
<path d="M183.658 123.365L114.389 142.19C111.221 143.049 107.823 142.82 104.826 141.544C101.828 140.268 99.4354 138.033 98.0924 135.254L76.4057 90.267C75.6902 88.7921 75.3267 87.193 75.3395 85.5776C75.3524 83.9621 75.7413 82.3681 76.4802 80.9031C77.2191 79.4382 78.2906 78.1364 79.6224 77.0858C80.9541 76.0351 82.5152 75.2602 84.1999 74.8132L174.885 50.6124C176.466 50.192 178.128 50.0928 179.755 50.3214C181.382 50.5501 182.937 51.1013 184.31 51.937C185.684 52.7727 186.845 53.8731 187.713 55.1621C188.58 56.4512 189.134 57.8983 189.335 59.4038L195.708 106.402C196.205 110.087 195.266 113.813 193.059 116.92C190.853 120.026 187.521 122.31 183.658 123.365Z" fill="#BEDDFA"/>
<path d="M115.141 127.947L110.081 134.328C109.933 134.518 109.732 134.668 109.497 134.76C109.264 134.852 109.008 134.883 108.756 134.851C108.505 134.818 108.267 134.722 108.071 134.573C107.875 134.425 107.726 134.23 107.641 134.009L103.741 125.869C103.664 125.71 103.636 125.534 103.659 125.362C103.681 125.188 103.754 125.025 103.869 124.887C103.985 124.749 104.139 124.642 104.314 124.578C104.491 124.515 104.682 124.495 104.868 124.524L114.344 125.935C114.57 125.983 114.777 126.082 114.95 126.224C115.123 126.365 115.254 126.543 115.334 126.742C115.412 126.942 115.436 127.157 115.403 127.368C115.369 127.578 115.279 127.777 115.141 127.947Z" fill="white"/>
<path d="M152.708 117.651L145.511 119.643L121.95 126.159C121.776 126.207 121.592 126.224 121.41 126.207C121.229 126.19 121.053 126.14 120.893 126.06C120.732 125.98 120.59 125.873 120.474 125.742C120.36 125.612 120.273 125.462 120.22 125.301C120.116 124.977 120.156 124.629 120.33 124.331C120.504 124.034 120.799 123.811 121.15 123.714L144.789 117.167L152.154 115.131C152.625 115.895 152.82 116.777 152.708 117.651Z" fill="white"/>
<path d="M152.633 118.061C152.432 119.049 151.818 119.925 150.924 120.501C150.029 121.077 148.925 121.306 147.849 121.14C146.886 120.944 146.046 120.406 145.511 119.643C144.982 118.915 144.733 118.044 144.802 117.17C144.829 116.62 144.979 116.081 145.244 115.588C145.508 115.095 145.882 114.659 146.341 114.306C146.798 113.953 147.331 113.693 147.906 113.54C148.48 113.388 149.081 113.348 149.673 113.422C150.196 113.53 150.688 113.738 151.117 114.033C151.546 114.328 151.905 114.703 152.167 115.134C152.633 115.898 152.823 116.78 152.708 117.651C152.691 117.785 152.665 117.923 152.633 118.061Z" fill="white"/>
<path d="M186.25 108.366L152.708 117.651C152.823 116.78 152.633 115.898 152.167 115.133L185.451 105.921C185.628 105.861 185.817 105.834 186.005 105.845C186.194 105.854 186.379 105.899 186.549 105.977C186.718 106.055 186.869 106.164 186.991 106.297C187.113 106.43 187.203 106.585 187.258 106.752C187.313 106.919 187.329 107.094 187.308 107.268C187.286 107.441 187.226 107.608 187.132 107.76C187.038 107.911 186.911 108.042 186.759 108.147C186.608 108.251 186.434 108.326 186.25 108.366Z" fill="#CBE6FF"/>
<path d="M246.798 214.533C246.798 214.533 256.127 218.859 287.413 263.883C293.43 272.536 301.586 279.224 328.238 280.478L306.3 309.56C306.3 309.56 265.103 302.852 259.586 285.445C254.071 268.037 246.798 214.533 246.798 214.533Z" fill="#475AEA"/>
<path d="M272.948 258.594C268.312 238.936 257.399 220.166 243.091 212.184C233.628 206.908 224.928 206.669 213.192 207.848C184.323 210.748 161.818 243.009 158.62 275.934C157.511 281.895 157.728 288.002 159.258 293.883C162.464 308.711 172.875 319.342 186.183 325.603C221.257 344.114 275.393 325.455 275.393 325.455C279.812 296.06 276.834 273.496 272.948 258.594Z" fill="#475AEA"/>
<path d="M250.686 228.116C250.686 228.116 271.789 253.055 266.125 309.505" stroke="#E6E6E6" stroke-width="1.34399" stroke-miterlimit="10" stroke-linecap="round"/>
<path d="M341.149 266.886C341.623 266.864 342.096 266.945 342.531 267.122C342.965 267.299 343.348 267.567 343.649 267.906C343.95 268.244 344.162 268.643 344.265 269.069C344.37 269.496 344.365 269.939 344.249 270.364L333.905 316.475C333.741 317.292 333.337 318.052 332.737 318.673C332.137 319.293 331.364 319.75 330.503 319.995L264.869 337.66C264.628 337.724 264.38 337.766 264.13 337.786C263.649 337.812 263.167 337.747 262.714 337.595C262.261 337.442 261.847 337.206 261.497 336.901C261.147 336.595 260.869 336.227 260.679 335.819C260.489 335.41 260.392 334.971 260.393 334.527L267.555 290.26C267.789 288.728 268.499 287.291 269.6 286.122C270.7 284.953 272.144 284.103 273.757 283.673L340.489 267.03C340.702 266.957 340.924 266.91 341.149 266.886Z" fill="#FFD550"/>
<path d="M339.421 265.966C339.02 265.814 338.584 265.753 338.151 265.785C337.919 265.799 337.688 265.84 337.466 265.905L270.735 282.548C269.122 282.979 267.678 283.829 266.577 284.997C265.477 286.166 264.766 287.603 264.533 289.135L257.377 333.401C257.382 334.054 257.596 334.692 257.992 335.233C258.387 335.775 258.947 336.197 259.602 336.447L262.601 337.548C261.946 337.299 261.386 336.877 260.99 336.335C260.594 335.793 260.381 335.156 260.378 334.503L267.539 290.235C267.773 288.703 268.483 287.266 269.583 286.097C270.684 284.929 272.128 284.079 273.742 283.649L340.473 267.005C341.108 266.82 341.793 266.84 342.413 267.061L339.421 265.966Z" fill="#FFB444"/>
<path d="M223.667 305.226C223.667 305.226 236.931 295.89 246.861 291.541C256.791 287.192 266.093 284.501 268.159 285.432C269.677 286.11 271.338 291.18 263.372 298.67C263.372 298.67 271.606 300.462 279.094 299.664C286.202 298.899 291.949 298.315 294.198 303.937C294.565 304.853 294.378 306.395 293.74 308.326C292.479 311.763 290.756 315.042 288.611 318.085C286.835 320.686 284.852 323.163 282.681 325.494C276.296 332.312 268.035 337.902 259.775 337.31C248.595 336.493 237.539 334.584 226.797 331.617C226.797 331.617 210.296 329.002 223.667 305.226Z" fill="#F3ABAA"/>
<path d="M282.658 311.215C280.754 311.414 278.838 311.499 276.922 311.469C276.83 311.467 276.739 311.448 276.655 311.414C276.571 311.38 276.495 311.33 276.431 311.268C276.304 311.145 276.235 310.979 276.239 310.808C276.244 310.636 276.323 310.475 276.457 310.357C276.591 310.239 276.772 310.175 276.957 310.179C277.04 310.171 285.359 310.378 291.713 307.905C291.797 307.873 291.888 307.855 291.979 307.855C292.07 307.855 292.16 307.872 292.245 307.903C292.33 307.934 292.406 307.982 292.471 308.041C292.536 308.1 292.588 308.17 292.623 308.249C292.658 308.326 292.677 308.408 292.677 308.493C292.678 308.577 292.66 308.661 292.625 308.739C292.591 308.816 292.539 308.887 292.475 308.947C292.411 309.006 292.335 309.054 292.251 309.086C289.177 310.206 285.948 310.923 282.658 311.215Z" fill="#FF2633"/>
<path d="M282.637 319.47C280.899 319.645 278.669 319.798 275.864 319.875C275.772 319.877 275.681 319.863 275.596 319.833C275.51 319.803 275.432 319.758 275.365 319.7C275.299 319.642 275.245 319.573 275.208 319.496C275.171 319.419 275.15 319.336 275.148 319.251C275.144 319.082 275.213 318.918 275.339 318.796C275.466 318.673 275.641 318.602 275.825 318.598C283.918 318.377 287.168 317.458 287.203 317.455C287.378 317.405 287.568 317.422 287.73 317.501C287.893 317.58 288.014 317.714 288.069 317.876C288.123 318.037 288.106 318.211 288.022 318.36C287.938 318.51 287.793 318.622 287.619 318.674C285.987 319.075 284.32 319.342 282.637 319.47Z" fill="#FF2633"/>
<path d="M272.745 326.911L270.93 327.094C270.747 327.112 270.563 327.062 270.42 326.956C270.276 326.85 270.184 326.696 270.165 326.526C270.145 326.358 270.198 326.189 270.314 326.057C270.429 325.925 270.597 325.84 270.779 325.822C278.384 325.186 280.781 324.263 280.801 324.255C280.97 324.187 281.162 324.183 281.333 324.245C281.504 324.307 281.643 324.429 281.717 324.585C281.791 324.74 281.795 324.916 281.728 325.074C281.66 325.233 281.528 325.36 281.359 325.428C281.264 325.45 279.175 326.265 272.745 326.911Z" fill="#FF2633"/>
<path d="M267.256 333.638C266.097 333.755 264.773 333.836 263.256 333.879C263.165 333.882 263.074 333.869 262.989 333.838C262.903 333.809 262.824 333.764 262.758 333.707C262.623 333.591 262.543 333.43 262.537 333.26C262.531 333.09 262.598 332.925 262.724 332.8C262.85 332.676 263.025 332.603 263.21 332.597C271.109 332.383 273.443 330.926 273.479 330.883C273.628 330.785 273.813 330.744 273.995 330.771C274.175 330.797 274.337 330.888 274.446 331.024C274.554 331.16 274.6 331.329 274.574 331.495C274.548 331.662 274.452 331.812 274.307 331.913C274.216 331.974 272.535 333.108 267.256 333.638Z" fill="#FF2633"/>
<path d="M181.246 224.812C181.246 224.812 151.443 249.847 147.507 300.082C147.507 300.082 146.52 313.627 155.91 319.407C165.3 325.185 195.879 336.093 232.812 333.187C232.812 333.187 215.184 326.891 223.666 305.227C223.666 305.227 200.437 299.969 193.455 292.648C186.472 285.327 201.69 260.4 201.69 260.4C201.69 260.4 216.941 191.627 181.246 224.812Z" fill="#475AEA"/>
<path d="M195.431 258.886C195.431 258.886 186.559 287.763 195.86 294.491C199.258 296.955 205.432 300.927 222.022 304.832" stroke="#E6E6E6" stroke-width="1.34399" stroke-miterlimit="10" stroke-linecap="round"/>
<path d="M306.673 296.546C310.069 295.749 313.139 298.096 313.499 301.785C313.859 305.474 311.366 309.128 307.948 309.928C304.532 310.729 301.481 308.371 301.127 304.676C300.774 300.979 303.262 297.346 306.673 296.546Z" fill="white"/>
<path d="M343.972 271.948C343.972 271.948 368.635 289.859 340.283 315.828C340.283 315.828 326.525 324.711 318.13 316.31C318.13 316.31 312.948 307.271 321.644 297.384C323.016 295.43 324.932 293.851 327.191 292.813C330.648 291.403 338.947 286.485 340.868 283.249C342.789 280.013 343.972 271.948 343.972 271.948Z" fill="#F3ABAA"/>
<path d="M325.239 302.099C324.015 302.278 322.759 302.103 321.648 301.598C321.128 301.338 320.679 300.971 320.338 300.525C319.998 300.08 319.772 299.568 319.682 299.028C319.662 298.86 319.716 298.691 319.831 298.559C319.946 298.427 320.113 298.342 320.297 298.323C320.48 298.305 320.663 298.355 320.806 298.461C320.95 298.567 321.042 298.721 321.062 298.89C321.129 299.228 321.277 299.548 321.499 299.825C321.72 300.102 322.009 300.327 322.34 300.485C323.527 301.075 326.03 301.286 331.166 298.956C336.728 296.396 337.686 295.47 337.772 295.371C337.868 295.24 338.014 295.145 338.181 295.107C338.348 295.069 338.525 295.09 338.676 295.164C338.839 295.245 338.96 295.381 339.012 295.543C339.066 295.706 339.047 295.881 338.96 296.03C338.782 296.351 337.723 297.377 331.762 300.099C329.727 301.103 327.521 301.779 325.239 302.099Z" fill="#FF2633"/>
<path d="M323.941 308.83C318.42 309.384 316.575 305.588 316.57 305.543C316.497 305.388 316.494 305.212 316.562 305.054C316.63 304.897 316.763 304.77 316.931 304.703C317.1 304.636 317.292 304.633 317.462 304.695C317.633 304.758 317.771 304.88 317.843 305.036C317.928 305.214 319.941 309.187 326.694 306.9C332.008 305.079 333.372 304.338 333.372 304.338C333.527 304.252 333.712 304.226 333.887 304.264C334.063 304.302 334.216 304.402 334.313 304.542C334.41 304.682 334.445 304.851 334.409 305.014C334.373 305.176 334.27 305.32 334.121 305.414C334.066 305.419 332.726 306.198 327.184 308.099C326.14 308.464 325.05 308.709 323.941 308.83Z" fill="#FF2633"/>
<path d="M324.946 315.728C323.468 315.896 321.969 315.788 320.539 315.411C319.107 315.034 317.773 314.397 316.615 313.535C316.549 313.477 316.495 313.409 316.458 313.332C316.42 313.256 316.399 313.173 316.397 313.089C316.394 313.005 316.41 312.922 316.442 312.843C316.474 312.765 316.522 312.692 316.585 312.631C316.711 312.51 316.884 312.439 317.066 312.433C317.248 312.429 317.426 312.49 317.559 312.604C317.76 312.77 322.439 316.617 329.714 312.953C329.876 312.871 330.066 312.851 330.242 312.899C330.42 312.946 330.57 313.057 330.659 313.205C330.748 313.355 330.768 313.53 330.717 313.692C330.666 313.856 330.546 313.993 330.384 314.076C328.708 314.953 326.859 315.514 324.946 315.728Z" fill="#FF2633"/>
<path d="M238.486 173.449C235.82 180.948 237.276 188.123 241.743 189.469C246.21 190.815 253.372 185.432 255.907 177.888C258.814 169.233 255.856 163.649 251.389 162.303C246.922 160.958 241.13 165.945 238.486 173.449Z" fill="#FFB444"/>
<path d="M255.917 177.89C258.222 171.402 256.969 165.199 253.119 164.038C249.268 162.876 244.278 167.195 241.972 173.684C239.667 180.173 240.92 186.374 244.77 187.536C248.621 188.697 253.611 184.379 255.917 177.89Z" fill="#FFD550"/>
<path d="M233.131 192.747L207.134 184.1L200.354 206.449L198.69 211.917C208.839 217.974 221.665 216.274 228.259 213.707C232.211 212.165 232.552 209.976 232.552 209.976C230.674 205.674 233.131 192.747 233.131 192.747Z" fill="#F3ABAA"/>
<path d="M232.098 200.242C232.473 196.274 233.131 192.747 233.131 192.747L207.134 184.1C207.134 184.1 210.037 198.187 232.098 200.242Z" fill="#0D0F44"/>
<path d="M229.869 194.323C244.373 192.866 254.764 180.142 253.079 165.904C251.395 151.665 238.272 141.304 223.768 142.761C209.265 144.218 198.874 156.941 200.558 171.18C202.243 185.419 215.366 195.78 229.869 194.323Z" fill="#F3ABAA"/>
<path d="M200.839 162.762C203.761 152.053 212.252 143.918 223.167 142.821C237.878 141.344 251.339 153.205 253.245 169.315C253.346 170.167 253.446 171.013 253.449 171.869L254.71 172.083C254.824 170.086 254.762 168.086 254.526 166.099C252.419 148.297 237.134 135.236 220.354 136.921C207.024 138.26 197.921 144 196.138 161.974L200.839 162.762Z" fill="#FFD550"/>
<path d="M262.3 144.223C261.415 136.746 253.894 131.371 245.518 132.212C244.021 132.364 242.556 132.711 241.165 133.242C237.395 130.624 232.825 129.167 228.105 129.079C218.722 128.967 206.287 134.037 202.713 151.155C202.385 154.307 202.527 157.486 203.133 160.602C203.133 160.602 209.93 163.412 215.338 156.719C220.612 150.193 226.297 149.377 229.632 151.191C234.112 153.655 236.992 159.459 248.7 159.28C249.244 159.329 249.794 159.259 250.302 159.073C252.297 162.925 253.276 167.156 253.16 171.422C260.098 164.028 260.571 156.221 259.439 153.678C261.668 150.979 262.691 147.595 262.3 144.223Z" fill="#0D0F44"/>
<path d="M210.753 168.245C212.178 176.028 209.571 182.916 204.943 183.625C200.313 184.335 194.094 178.031 192.808 170.228C191.328 161.26 195.157 156.16 199.792 155.438C204.426 154.714 209.33 160.462 210.753 168.245Z" fill="#FFB444"/>
<path d="M202.269 181.319C206.264 180.699 208.506 174.738 207.277 168.005C206.047 161.273 201.811 156.316 197.816 156.936C193.82 157.555 191.578 163.516 192.808 170.249C194.037 176.982 198.272 181.938 202.269 181.319Z" fill="#FFD550"/>
<path d="M232.2 167.933C232.661 166.073 232.192 164.389 231.153 164.17C230.114 163.952 228.898 165.282 228.439 167.142C227.978 169.001 228.447 170.686 229.486 170.904C230.525 171.123 231.741 169.792 232.2 167.933Z" fill="#0D0F44"/>
<path d="M248.302 170.21C248.767 168.341 248.298 166.646 247.254 166.425C246.209 166.203 244.985 167.541 244.519 169.41C244.053 171.279 244.522 172.974 245.567 173.195C246.611 173.416 247.836 172.079 248.302 170.21Z" fill="#0D0F44"/>
<path d="M218.534 177.056C217.427 178.852 219.17 183.026 224.315 182.779" stroke="#0D0F44" stroke-width="1.34399" stroke-miterlimit="10" stroke-linecap="round"/>
<path d="M238.371 170.875L237.466 178.158C237.439 178.368 237.367 178.571 237.251 178.754C237.135 178.936 236.98 179.096 236.796 179.221C236.611 179.347 236.4 179.436 236.176 179.483C235.953 179.529 235.72 179.534 235.495 179.494L233.641 179.173" stroke="#0D0F44" stroke-width="1.34399" stroke-miterlimit="10" stroke-linecap="round"/>
<path d="M222.599 524.197L159.493 543.94C158.445 544.268 157.341 544.387 156.246 544.29C155.151 544.194 154.086 543.883 153.112 543.376C152.138 542.869 151.273 542.176 150.568 541.337C149.862 540.497 149.33 539.527 149.001 538.483L136.385 498.471C135.746 496.444 135.907 494.251 136.836 492.339C137.765 490.427 139.392 488.94 141.385 488.183L203.758 464.442C204.974 464.061 206.254 463.923 207.524 464.035C208.794 464.147 210.03 464.507 211.16 465.095C212.29 465.683 213.293 466.487 214.111 467.461C214.929 468.436 215.547 469.561 215.928 470.773L228.941 512.067C229.714 514.513 229.48 517.165 228.291 519.44C227.102 521.714 225.054 523.425 222.599 524.197Z" fill="#475AEA"/>
<path d="M193.505 509.468L184.786 512.995L173.684 504.399L174.972 495.121C175.039 494.652 175.228 494.208 175.52 493.833C175.812 493.459 176.196 493.167 176.636 492.986L196.717 484.854C196.885 484.786 197.068 484.764 197.248 484.789C197.428 484.814 197.598 484.886 197.741 484.997C197.884 485.109 197.995 485.255 198.063 485.423C198.131 485.59 198.153 485.773 198.128 485.952L195.162 507.339C195.095 507.807 194.906 508.248 194.616 508.621C194.325 508.995 193.942 509.286 193.505 509.468Z" stroke="white" stroke-width="1.83242" stroke-miterlimit="10" stroke-linecap="round"/>
<path d="M184.841 513.036L177.643 522.253C176.91 523.187 175.349 523.194 174.15 522.253L167.342 516.972C166.144 516.044 165.767 514.53 166.493 513.595L173.685 504.399L184.841 513.036Z" stroke="white" stroke-width="1.83242" stroke-miterlimit="10" stroke-linecap="round"/>
<path d="M197.744 484.997L187.334 498.334" stroke="white" stroke-width="1.83242" stroke-miterlimit="10" stroke-linecap="round"/>
<path d="M185.005 505.19C187.123 505.19 188.841 503.48 188.841 501.37C188.841 499.26 187.123 497.55 185.005 497.55C182.887 497.55 181.17 499.26 181.17 501.37C181.17 503.48 182.887 505.19 185.005 505.19Z" stroke="white" stroke-width="1.83242" stroke-miterlimit="10" stroke-linecap="round"/>
</svg>
